<svg width="38" height="38" viewBox="0 0 38 38" fill="none" xmlns="http://www.w3.org/2000/svg">
<g filter="url(#filter0_d_4_22)">
<path fill-rule="evenodd" clip-rule="evenodd" d="M12.8159 0.09C14.4155 0.0163636 14.9255 0 19 0C23.0745 0 23.5845 0.0177273 25.1827 0.09C26.7809 0.162273 27.8718 0.417273 28.8264 0.786818C29.8259 1.16455 30.7327 1.755 31.4827 2.51864C32.2464 3.26727 32.8355 4.17273 33.2118 5.17364C33.5827 6.12818 33.8364 7.21909 33.91 8.81455C33.9836 10.4168 34 10.9268 34 15C34 19.0745 33.9823 19.5845 33.91 21.1841C33.8377 22.7795 33.5827 23.8705 33.2118 24.825C32.8354 25.826 32.2454 26.733 31.4827 27.4827C30.7327 28.2464 29.8259 28.8355 28.8264 29.2118C27.8718 29.5827 26.7809 29.8364 25.1855 29.91C23.5845 29.9836 23.0745 30 19 30C14.9255 30 14.4155 29.9823 12.8159 29.91C11.2205 29.8377 10.1295 29.5827 9.175 29.2118C8.17398 28.8354 7.26703 28.2453 6.51727 27.4827C5.75415 26.7336 5.16361 25.8271 4.78682 24.8264C4.41727 23.8718 4.16364 22.7809 4.09 21.1855C4.01636 19.5832 4 19.0732 4 15C4 10.9255 4.01773 10.4155 4.09 8.81727C4.16227 7.21909 4.41727 6.12818 4.78682 5.17364C5.16417 4.17284 5.75516 3.26634 6.51864 2.51727C7.26733 1.75432 8.17337 1.16379 9.17364 0.786818C10.1282 0.417273 11.2191 0.163636 12.8145 0.09H12.8159ZM25.0614 2.79C23.4795 2.71773 23.005 2.70273 19 2.70273C14.995 2.70273 14.5205 2.71773 12.9386 2.79C11.4755 2.85682 10.6818 3.10091 10.1527 3.30682C9.45318 3.57955 8.95273 3.90273 8.42773 4.42773C7.93006 4.91189 7.54706 5.50129 7.30682 6.15273C7.10091 6.68182 6.85682 7.47545 6.79 8.93864C6.71773 10.5205 6.70273 10.995 6.70273 15C6.70273 19.005 6.71773 19.4795 6.79 21.0614C6.85682 22.5245 7.10091 23.3182 7.30682 23.8473C7.54682 24.4977 7.93 25.0882 8.42773 25.5723C8.91182 26.07 9.50227 26.4532 10.1527 26.6932C10.6818 26.8991 11.4755 27.1432 12.9386 27.21C14.5205 27.2823 14.9936 27.2973 19 27.2973C23.0064 27.2973 23.4795 27.2823 25.0614 27.21C26.5245 27.1432 27.3182 26.8991 27.8473 26.6932C28.5468 26.4205 29.0473 26.0973 29.5723 25.5723C30.07 25.0882 30.4532 24.4977 30.6932 23.8473C30.8991 23.3182 31.1432 22.5245 31.21 21.0614C31.2823 19.4795 31.2973 19.005 31.2973 15C31.2973 10.995 31.2823 10.5205 31.21 8.93864C31.1432 7.47545 30.8991 6.68182 30.6932 6.15273C30.4205 5.45318 30.0973 4.95273 29.5723 4.42773C29.0881 3.9301 28.4987 3.54711 27.8473 3.30682C27.3182 3.10091 26.5245 2.85682 25.0614 2.79ZM17.0841 19.6241C18.1541 20.0695 19.3455 20.1296 20.4549 19.7942C21.5643 19.4587 22.5228 18.7485 23.1667 17.7849C23.8107 16.8212 24.1001 15.6639 23.9855 14.5106C23.871 13.3573 23.3596 12.2795 22.5386 11.4614C22.0153 10.9384 21.3826 10.5379 20.6859 10.2888C19.9893 10.0397 19.246 9.94822 18.5098 10.0208C17.7735 10.0935 17.0625 10.3284 16.4279 10.7088C15.7933 11.0892 15.251 11.6056 14.84 12.2207C14.4289 12.8359 14.1593 13.5345 14.0507 14.2663C13.9421 14.9981 13.997 15.7449 14.2116 16.453C14.4263 17.161 14.7952 17.8127 15.2919 18.361C15.7886 18.9093 16.4007 19.3407 17.0841 19.6241ZM13.5482 9.54818C14.2641 8.83224 15.1141 8.26432 16.0495 7.87686C16.9849 7.48939 17.9875 7.28996 19 7.28996C20.0125 7.28996 21.0151 7.48939 21.9505 7.87686C22.8859 8.26432 23.7359 8.83224 24.4518 9.54818C25.1678 10.2641 25.7357 11.1141 26.1231 12.0495C26.5106 12.9849 26.71 13.9875 26.71 15C26.71 16.0125 26.5106 17.0151 26.1231 17.9505C25.7357 18.8859 25.1678 19.7359 24.4518 20.4518C23.0059 21.8977 21.0448 22.71 19 22.71C16.9552 22.71 14.9941 21.8977 13.5482 20.4518C12.1023 19.0059 11.29 17.0448 11.29 15C11.29 12.9552 12.1023 10.9941 13.5482 9.54818ZM28.42 8.43818C28.5974 8.27082 28.7394 8.06956 28.8377 7.84633C28.9359 7.62309 28.9884 7.38241 28.9919 7.13854C28.9955 6.89467 28.9501 6.65257 28.8584 6.42656C28.7667 6.20055 28.6306 5.99524 28.4581 5.82278C28.2857 5.65032 28.0804 5.51421 27.8544 5.42252C27.6283 5.33083 27.3862 5.28542 27.1424 5.28898C26.8985 5.29253 26.6578 5.34498 26.4346 5.44322C26.2113 5.54146 26.0101 5.68349 25.8427 5.86091C25.5172 6.20595 25.339 6.66426 25.346 7.13854C25.3529 7.61283 25.5444 8.06574 25.8798 8.40115C26.2152 8.73656 26.6681 8.92804 27.1424 8.93495C27.6167 8.94187 28.075 8.76367 28.42 8.43818Z" fill="#0C0404"/>
</g>
<defs>
<filter id="filter0_d_4_22" x="0" y="0" width="38" height="38" filterUnits="userSpaceOnUse" color-interpolation-filters="sRGB">
<feFlood flood-opacity="0" result="BackgroundImageFix"/>
<feColorMatrix in="SourceAlpha" type="matrix" values="0 0 0 0 0 0 0 0 0 0 0 0 0 0 0 0 0 0 127 0" result="hardAlpha"/>
<feOffset dy="4"/>
<feGaussianBlur stdDeviation="2"/>
<feComposite in2="hardAlpha" operator="out"/>
<feColorMatrix type="matrix" values="0 0 0 0 0 0 0 0 0 0 0 0 0 0 0 0 0 0 0.25 0"/>
<feBlend mode="normal" in2="BackgroundImageFix" result="effect1_dropShadow_4_22"/>
<feBlend mode="normal" in="SourceGraphic" in2="effect1_dropShadow_4_22" result="shape"/>
</filter>
</defs>
</svg>
